<svg width="466" height="459" viewBox="0 0 466 459" fill="none" xmlns="http://www.w3.org/2000/svg">
<rect x="60.6875" y="49.2988" width="331.202" height="331.204" rx="165.601" fill="#1C1C1C"/>
<rect x="391.89" y="54.1523" width="232.959" height="3.56" transform="rotate(135 391.89 54.1523)" fill="#0900FF"/>
<rect x="225.871" y="450.059" width="232.959" height="3.56" transform="rotate(-90 225.871 450.059)" fill="#2B2B2B"/>
<rect x="386.44" y="381.688" width="232.959" height="3.56" transform="rotate(-135 386.44 381.688)" fill="#FF0000"/>
<rect x="223" y="217.371" width="211.87" height="3.23771" transform="rotate(-135 223 217.371)" fill="#6A00FF"/>
<rect x="1.17456" y="216.961" width="232.959" height="3.56" fill="#00FF11"/>
<rect x="228.069" y="27.1445" width="187.756" height="3.56144" transform="rotate(90 228.069 27.1445)" fill="#F200FF"/>
<rect x="193.365" y="185.816" width="69.4075" height="69.4079" rx="34.7037" fill="#1C1C1C" stroke="#222222" stroke-width="3"/>
<path d="M223.974 221.854C223.753 221.784 223.532 221.699 223.307 221.644C222.701 221.498 222.093 221.431 221.467 221.474C221.262 221.491 221.025 221.425 220.838 221.328C220.115 220.957 219.618 220.371 219.286 219.649C219.148 219.351 219.164 219.03 219.231 218.72C219.286 218.455 219.495 218.374 219.725 218.534C219.923 218.672 220.091 218.849 220.282 218.998C220.524 219.185 220.77 219.372 221.027 219.536C221.21 219.652 221.415 219.654 221.639 219.629C221.948 219.596 222.27 219.613 222.583 219.633C223.005 219.659 223.435 219.682 223.85 219.751C224.315 219.83 224.75 219.985 224.963 220.463C225.011 220.572 225.103 220.545 225.165 220.473C225.257 220.359 225.344 220.241 225.409 220.112C225.884 219.182 226.184 218.194 226.457 217.198C226.678 216.388 226.876 215.574 226.922 214.735C226.945 214.326 226.949 213.918 226.976 213.51C226.983 213.389 227.04 213.268 227.089 213.15C227.142 213.025 227.238 212.956 227.389 212.955C227.548 212.954 227.664 213.021 227.7 213.16C227.772 213.413 227.841 213.669 227.87 213.93C227.929 214.417 227.918 214.912 228.004 215.394C228.249 216.734 228.671 218.022 229.375 219.203C229.552 219.504 229.806 219.762 230.037 220.032C230.099 220.104 230.204 220.144 230.286 220.2C231.033 219.431 231.96 219.193 232.99 219.222C233.849 219.245 234.617 218.967 235.309 218.504C235.674 218.259 236 217.962 236.323 217.664C236.438 217.558 236.534 217.489 236.689 217.541C236.86 217.596 236.973 217.716 236.956 217.89C236.938 218.067 236.897 218.253 236.821 218.412C236.506 219.053 236.019 219.552 235.427 219.95C234.612 220.501 233.709 220.833 232.711 220.887C232.526 220.896 232.34 220.928 232.155 220.963C232.066 220.979 231.981 221.025 231.892 221.056C231.889 221.075 231.885 221.097 231.881 221.116C231.998 221.183 232.107 221.262 232.232 221.321C232.787 221.577 233.343 221.822 233.899 222.075C234.074 222.156 234.237 222.257 234.412 222.338C235.007 222.628 235.314 223.147 235.548 223.719C235.631 223.927 235.66 224.146 235.561 224.362C235.508 224.475 235.451 224.502 235.322 224.443C234.654 224.143 233.963 223.895 233.219 223.837C233.161 223.834 233.103 223.823 233.045 223.831C232.063 223.93 231.254 223.509 230.467 223.021C230.32 222.931 230.183 222.823 230.054 222.711C229.922 222.591 229.77 222.562 229.632 222.654C229.455 222.772 229.267 222.906 229.152 223.077C228.969 223.347 228.833 223.65 228.704 223.95C228.492 224.435 228.307 224.931 228.094 225.417C228.049 225.519 227.945 225.596 227.869 225.683C227.79 225.597 227.697 225.518 227.638 225.421C227.15 224.597 226.67 223.77 226.194 222.943C226.045 222.687 225.932 222.658 225.686 222.822C225.617 222.868 225.552 222.922 225.498 222.983C224.943 223.614 224.215 223.983 223.44 224.273C223.019 224.427 222.574 224.374 222.136 224.359C221.954 224.353 221.772 224.351 221.598 224.326C221.23 224.272 220.922 224.407 220.617 224.587C220.433 224.698 220.232 224.79 220.024 224.853C219.804 224.919 219.66 224.803 219.638 224.58C219.6 224.214 219.756 223.933 220.029 223.7C220.52 223.28 221.106 223.034 221.708 222.829C222.028 222.72 222.364 222.649 222.688 222.537C223.027 222.421 223.359 222.279 223.687 222.136C223.794 222.09 223.879 221.998 223.979 221.93C223.978 221.907 223.974 221.881 223.974 221.854Z" fill="#2B2B2B"/>
<circle cx="372.08" cy="71.8694" r="31.2249" fill="#0B04E2"/>
<circle cx="433.85" cy="218.879" r="31.2249" fill="#00D0FF"/>
<circle cx="372.08" cy="364.805" r="31.2249" fill="#FF0000"/>
<circle cx="228.069" cy="427.254" r="31.2249" fill="#2B2B2B"/>
<circle cx="76.8577" cy="367.24" r="31.2249" fill="#FFEA00"/>
<circle cx="31.2249" cy="219.319" r="31.2249" fill="#00FF11"/>
<circle cx="82.8806" cy="75.1409" r="31.2249" fill="#6A00FF"/>
<circle cx="226.288" cy="31.2249" r="31.2249" fill="#F200FF"/>
<rect x="60.6875" y="49.2988" width="331.202" height="331.204" rx="165.601" fill="#1C1C1C"/>
<path d="M225.594 427.6L431.934 217.373M431.934 217.373L225.594 221.804M431.934 217.373L373.247 75.68M431.934 217.373L225.594 31.3066M431.934 217.373L82.5302 75.6797" stroke="#2B2B2B" stroke-width="4"/>
<path d="M227.993 222.58L227.563 427.253" stroke="#2B2B2B" stroke-width="4"/>
<path d="M367.318 367.24L227.563 427.253" stroke="#2B2B2B" stroke-width="4"/>
<path d="M372.081 71.869L227.563 427.253" stroke="#2B2B2B" stroke-width="4"/>
<path d="M227.778 37.7264L227.563 427.254" stroke="#2B2B2B" stroke-width="4"/>
<path d="M227.778 37.7264L227.563 427.254" stroke="#2B2B2B" stroke-width="4"/>
<path d="M82.8805 75.6522L227.563 427.254" stroke="#2B2B2B" stroke-width="4"/>
<path d="M31.2248 222.58L227.563 427.253" stroke="#2B2B2B" stroke-width="4"/>
<path d="M92.9479 364.805L227.563 427.254" stroke="#2B2B2B" stroke-width="4"/>
<path d="M82.5583 359.668L431.934 222.369M82.5583 359.668L226.556 37.7266M82.5583 359.668L361.829 81.9873M82.5583 359.668L371.703 368.503" stroke="#2B2B2B" stroke-width="4"/>
<path d="M223.974 221.854C223.753 221.784 223.532 221.699 223.307 221.644C222.701 221.498 222.093 221.431 221.467 221.474C221.262 221.491 221.025 221.425 220.838 221.328C220.115 220.957 219.618 220.371 219.286 219.649C219.148 219.351 219.164 219.03 219.231 218.72C219.286 218.455 219.495 218.374 219.725 218.534C219.923 218.672 220.091 218.849 220.282 218.998C220.524 219.185 220.77 219.372 221.027 219.536C221.21 219.652 221.415 219.654 221.639 219.629C221.948 219.596 222.27 219.613 222.583 219.633C223.005 219.659 223.435 219.682 223.85 219.751C224.315 219.83 224.75 219.985 224.963 220.463C225.011 220.572 225.103 220.545 225.165 220.473C225.257 220.359 225.344 220.241 225.409 220.112C225.884 219.182 226.184 218.194 226.457 217.198C226.678 216.388 226.876 215.574 226.922 214.735C226.945 214.326 226.949 213.918 226.976 213.51C226.983 213.389 227.04 213.268 227.089 213.15C227.142 213.025 227.238 212.956 227.389 212.955C227.548 212.954 227.664 213.021 227.7 213.16C227.772 213.413 227.841 213.669 227.87 213.93C227.929 214.417 227.918 214.912 228.004 215.394C228.249 216.734 228.671 218.022 229.375 219.203C229.552 219.504 229.806 219.762 230.037 220.032C230.099 220.104 230.204 220.144 230.286 220.2C231.033 219.431 231.96 219.193 232.99 219.222C233.849 219.245 234.617 218.967 235.309 218.504C235.674 218.259 236 217.962 236.323 217.664C236.438 217.558 236.534 217.489 236.689 217.541C236.86 217.596 236.973 217.716 236.956 217.89C236.938 218.067 236.897 218.253 236.821 218.412C236.506 219.053 236.019 219.552 235.427 219.95C234.612 220.501 233.709 220.833 232.711 220.887C232.526 220.896 232.34 220.928 232.155 220.963C232.066 220.979 231.981 221.025 231.892 221.056C231.889 221.075 231.885 221.097 231.881 221.116C231.998 221.183 232.107 221.262 232.232 221.321C232.787 221.577 233.343 221.822 233.899 222.075C234.074 222.156 234.237 222.257 234.412 222.338C235.007 222.628 235.314 223.147 235.548 223.719C235.631 223.927 235.66 224.146 235.561 224.362C235.508 224.475 235.451 224.502 235.322 224.443C234.654 224.143 233.963 223.895 233.219 223.837C233.161 223.834 233.103 223.823 233.045 223.831C232.063 223.93 231.254 223.509 230.467 223.021C230.32 222.931 230.183 222.823 230.054 222.711C229.922 222.591 229.77 222.562 229.632 222.654C229.455 222.772 229.267 222.906 229.152 223.077C228.969 223.347 228.833 223.65 228.704 223.95C228.492 224.435 228.307 224.931 228.094 225.417C228.049 225.519 227.945 225.596 227.869 225.683C227.79 225.597 227.697 225.518 227.638 225.421C227.15 224.597 226.67 223.77 226.194 222.943C226.045 222.687 225.932 222.658 225.686 222.822C225.617 222.868 225.552 222.922 225.498 222.983C224.943 223.614 224.215 223.983 223.44 224.273C223.019 224.427 222.574 224.374 222.136 224.359C221.954 224.353 221.772 224.351 221.598 224.326C221.23 224.272 220.922 224.407 220.617 224.587C220.433 224.698 220.232 224.79 220.024 224.853C219.804 224.919 219.66 224.803 219.638 224.58C219.6 224.214 219.756 223.933 220.029 223.7C220.52 223.28 221.106 223.034 221.708 222.829C222.028 222.72 222.364 222.649 222.688 222.537C223.027 222.421 223.359 222.279 223.687 222.136C223.794 222.09 223.879 221.998 223.979 221.93C223.978 221.907 223.974 221.881 223.974 221.854Z" fill="#2B2B2B"/>
<path d="M26.093 218.764H227.993" stroke="#2B2B2B" stroke-width="4"/>
<path d="M26.093 218.764L372.08 71.8691" stroke="#2B2B2B" stroke-width="4"/>
<path d="M26.093 218.764L226.288 37.7256" stroke="#2B2B2B" stroke-width="4"/>
<path d="M26.093 218.764L82.3672 76.5742" stroke="#2B2B2B" stroke-width="4"/>
<path d="M26.093 218.764L372.08 367.24" stroke="#2B2B2B" stroke-width="4"/>
<path d="M26.093 218.764L76.8575 367.24" stroke="#2B2B2B" stroke-width="4"/>
<path d="M83.1677 75.8655L28.8135 207.574M83.1677 75.8655L228.793 221.491M83.1677 75.8655L228.793 30.9238M83.1677 75.8655L374.986 75.8652M83.1677 75.8655V368.948" stroke="#2B2B2B" stroke-width="4"/>
<circle cx="82.8806" cy="75.1409" r="31.2249" fill="#6A00FF"/>
<circle cx="76.8577" cy="367.24" r="31.2249" fill="#FFEA00"/>
<circle cx="31.2249" cy="219.319" r="31.2249" fill="#00FF11"/>
<path d="M371.695 369.404L367.318 75.6508L241.7 30.9238" stroke="#2B2B2B" stroke-width="4"/>
<path d="M373.659 366.901L226.915 33.5088M373.659 366.901L433.792 218.256M373.659 366.901L226.915 218.256" stroke="#2B2B2B" stroke-width="4"/>
<rect x="193.365" y="185.816" width="69.4075" height="69.4079" rx="34.7037" fill="#1C1C1C" stroke="#222222" stroke-width="3"/>
<circle cx="226.288" cy="31.2249" r="31.2249" fill="#F200FF"/>
<circle cx="433.85" cy="218.879" r="31.2249" fill="#00D0FF"/>
<circle cx="372.08" cy="364.805" r="31.2249" fill="#FF0000"/>
<circle cx="228.069" cy="427.254" r="31.2249" fill="#FF0000"/>
<path d="M221.963 222.285C221.606 222.172 221.25 222.035 220.887 221.947C219.913 221.711 218.933 221.604 217.924 221.673C217.593 221.7 217.212 221.594 216.911 221.438C215.746 220.839 214.945 219.896 214.411 218.732C214.188 218.253 214.214 217.735 214.322 217.236C214.411 216.809 214.747 216.678 215.117 216.937C215.437 217.159 215.708 217.443 216.016 217.684C216.405 217.985 216.801 218.286 217.215 218.551C217.509 218.737 217.84 218.74 218.201 218.701C218.699 218.648 219.217 218.674 219.722 218.706C220.402 218.749 221.095 218.787 221.763 218.897C222.512 219.024 223.213 219.274 223.556 220.044C223.633 220.22 223.782 220.176 223.881 220.06C224.029 219.876 224.17 219.686 224.274 219.478C225.039 217.981 225.523 216.388 225.963 214.784C226.319 213.479 226.637 212.168 226.711 210.816C226.749 210.158 226.755 209.501 226.799 208.843C226.809 208.648 226.901 208.453 226.98 208.264C227.066 208.062 227.22 207.951 227.464 207.949C227.719 207.947 227.907 208.055 227.966 208.28C228.082 208.687 228.191 209.1 228.239 209.519C228.334 210.303 228.316 211.101 228.454 211.879C228.849 214.036 229.529 216.112 230.663 218.014C230.948 218.498 231.357 218.915 231.729 219.35C231.83 219.465 231.999 219.53 232.131 219.62C233.335 218.381 234.827 217.998 236.486 218.045C237.871 218.082 239.107 217.634 240.222 216.888C240.811 216.494 241.336 216.015 241.855 215.536C242.041 215.364 242.196 215.253 242.446 215.336C242.721 215.425 242.904 215.618 242.875 215.898C242.847 216.185 242.781 216.483 242.658 216.74C242.151 217.773 241.366 218.577 240.412 219.217C239.099 220.105 237.645 220.64 236.038 220.726C235.739 220.741 235.44 220.792 235.141 220.849C234.998 220.875 234.862 220.949 234.718 220.999C234.713 221.029 234.707 221.066 234.701 221.096C234.889 221.204 235.065 221.331 235.265 221.427C236.16 221.839 237.056 222.233 237.951 222.64C238.233 222.771 238.496 222.934 238.778 223.065C239.736 223.532 240.23 224.368 240.607 225.29C240.741 225.623 240.788 225.976 240.629 226.324C240.543 226.508 240.45 226.551 240.244 226.455C239.167 225.971 238.053 225.573 236.855 225.479C236.762 225.474 236.668 225.456 236.575 225.469C234.993 225.628 233.69 224.951 232.423 224.164C232.185 224.02 231.965 223.846 231.757 223.665C231.544 223.472 231.3 223.425 231.077 223.573C230.792 223.764 230.489 223.98 230.304 224.255C230.009 224.689 229.789 225.178 229.582 225.661C229.24 226.442 228.942 227.242 228.6 228.024C228.527 228.189 228.36 228.312 228.236 228.453C228.11 228.314 227.96 228.188 227.865 228.03C227.079 226.704 226.306 225.371 225.539 224.039C225.298 223.627 225.117 223.58 224.721 223.845C224.609 223.918 224.504 224.005 224.418 224.103C223.523 225.12 222.35 225.714 221.102 226.181C220.425 226.43 219.707 226.345 219.002 226.32C218.709 226.31 218.416 226.307 218.135 226.266C217.542 226.18 217.045 226.397 216.555 226.687C216.258 226.866 215.935 227.015 215.599 227.115C215.245 227.221 215.013 227.035 214.978 226.676C214.916 226.086 215.168 225.634 215.607 225.259C216.398 224.583 217.342 224.185 218.312 223.855C218.828 223.68 219.369 223.566 219.891 223.385C220.438 223.198 220.972 222.969 221.5 222.739C221.673 222.665 221.809 222.517 221.97 222.407C221.97 222.37 221.963 222.328 221.963 222.285Z" fill="white"/>
<circle cx="372.08" cy="71.8694" r="31.2249" fill="#0B04E2"/>
</svg>
