<svg width="132" height="36" viewBox="0 0 132 36" fill="none" xmlns="http://www.w3.org/2000/svg">
  <style>
    @import url("https://fonts.googleapis.com/css2?family=Sorts+Mill+Goudy&amp;display=swap");
    .wordmark {
      font-family: "Sorts Mill Goudy", Georgia, "Times New Roman", serif;
      font-size: 26px;
      letter-spacing: -0.07em;
      fill: #1c1c1c;
    }
  </style>
  <g transform="translate(0 2) scale(0.333333)">
    <circle cx="47.6509" cy="88.3311" r="7" fill="#FF0000"/>
    <circle cx="17.9912" cy="17.7881" r="7" fill="#6A00FF"/>
    <circle cx="17.9912" cy="76.3174" r="7" fill="#FFEA00"/>
    <circle cx="7" cy="46.248" r="7" fill="#00FF11"/>
    <circle cx="47.6509" cy="7" r="7" fill="#F200FF"/>
    <circle cx="89.4746" cy="46.248" r="7" fill="#00D0FF"/>
    <circle cx="76.604" cy="76.3174" r="7" fill="#FF0000"/>
    <circle cx="76.604" cy="17.7881" r="7" fill="#0B04E2"/>
    <path d="M41.7349 50.2737C41.3835 50.1627 41.0321 50.0275 40.6748 49.9405C39.714 49.7085 38.7482 49.6025 37.7534 49.6706C37.428 49.6973 37.052 49.5925 36.7557 49.4389C35.6071 48.8485 34.818 47.9193 34.291 46.7718C34.0715 46.2996 34.0974 45.7895 34.2033 45.2968C34.2917 44.876 34.6223 44.7473 34.9872 45.0023C35.3027 45.2218 35.5695 45.5015 35.8729 45.7389C36.2566 46.0357 36.6465 46.3323 37.0546 46.5929C37.3452 46.7766 37.6709 46.7798 38.0269 46.7409C38.5181 46.6889 39.0283 46.7147 39.5263 46.7465C40.1966 46.789 40.879 46.8255 41.5374 46.9339C42.276 47.0598 42.9666 47.3061 43.3055 48.0652C43.381 48.2384 43.528 48.1953 43.6252 48.0805C43.771 47.8993 43.9105 47.7123 44.0131 47.5074C44.7673 46.0315 45.2442 44.4618 45.6779 42.8805C46.0283 41.5939 46.3418 40.3016 46.4152 38.9692C46.4522 38.321 46.4584 37.673 46.5014 37.0249C46.5119 36.8328 46.6022 36.6401 46.6804 36.4535C46.7646 36.2548 46.9171 36.1456 47.1568 36.1436C47.4088 36.1416 47.5941 36.248 47.6515 36.4695C47.7658 36.8705 47.8741 37.2775 47.921 37.691C48.0144 38.4641 47.9973 39.2501 48.1334 40.0169C48.5221 42.1432 49.1928 44.1893 50.3104 46.0637C50.5914 46.5413 50.9947 46.952 51.3613 47.3808C51.4607 47.4941 51.6273 47.5585 51.7571 47.6475C52.9438 46.426 54.415 46.0479 56.05 46.0944C57.4145 46.131 58.6332 45.6892 59.7324 44.9542C60.3126 44.5655 60.8304 44.0933 61.3421 43.6213C61.5249 43.4518 61.6775 43.3425 61.9239 43.4244C62.1952 43.5121 62.3753 43.7026 62.3472 43.9788C62.3191 44.261 62.2542 44.5555 62.1337 44.8084C61.6334 45.8265 60.8603 46.6186 59.9199 47.2503C58.6254 48.1247 57.1925 48.6525 55.6078 48.7376C55.3132 48.7521 55.0187 48.8024 54.7242 48.8589C54.5832 48.8839 54.4487 48.9571 54.3076 49.0062C54.3019 49.0363 54.2961 49.0723 54.2902 49.1023C54.4755 49.2088 54.6488 49.3332 54.8463 49.4277C55.7288 49.8343 56.6112 50.2229 57.4937 50.6237C57.7715 50.7533 58.0311 50.9132 58.3088 51.0428C59.2534 51.503 59.7403 52.3268 60.1115 53.2355C60.2436 53.5642 60.29 53.912 60.1333 54.2552C60.0489 54.4358 59.9573 54.4786 59.7537 54.3843C58.6922 53.9072 57.5946 53.5143 56.414 53.422C56.3217 53.4169 56.2294 53.3995 56.1374 53.4123C54.578 53.5691 53.2935 52.9018 52.045 52.1263C51.8102 51.9842 51.5935 51.8121 51.389 51.6339C51.1783 51.4436 50.9381 51.3976 50.7183 51.5434C50.4375 51.7317 50.1384 51.9441 49.9565 52.2155C49.6657 52.6438 49.449 53.1256 49.2446 53.601C48.9078 54.3717 48.6139 55.1599 48.2771 55.9307C48.2049 56.0932 48.0401 56.2146 47.9185 56.3535C47.7943 56.2165 47.6458 56.0918 47.5521 55.9366C46.7777 54.6292 46.0158 53.3158 45.2599 52.0023C45.0225 51.5964 44.8439 51.5499 44.453 51.811C44.3431 51.8839 44.2394 51.9688 44.1543 52.0654C43.2728 53.0684 42.1168 53.6538 40.8861 54.114C40.2186 54.3595 39.5112 54.2753 38.8166 54.251C38.5276 54.2413 38.2387 54.2378 37.9618 54.198C37.3773 54.1129 36.8878 54.3269 36.405 54.6129C36.1117 54.7891 35.7936 54.9357 35.4627 55.0346C35.1133 55.1394 34.8843 54.9552 34.8501 54.6017C34.7894 54.0202 35.0371 53.5744 35.47 53.2048C36.2503 52.5384 37.1807 52.1469 38.1362 51.8211C38.6445 51.6489 39.1781 51.5365 39.6927 51.3584C40.2317 51.174 40.758 50.9477 41.2781 50.7212C41.4495 50.648 41.5834 50.5029 41.7421 50.3936C41.7417 50.3577 41.7352 50.3157 41.7349 50.2737Z" fill="white"/>
  </g>
  <text class="wordmark" x="38" y="27">Saga</text>
</svg>
